<svg width="61" height="61" viewBox="0 0 61 61" fill="none" xmlns="http://www.w3.org/2000/svg">
<path d="M38.1279 14.2238C38.1279 22.0371 31.8873 31.5879 24.6068 31.5879C17.3263 31.5879 11.0859 22.0371 11.0859 14.2238C11.0859 6.65163 17.1615 0.5 24.6068 0.5C32.065 0.500013 38.1279 6.65163 38.1279 14.2238Z" fill="#16418F"/>
<path d="M50.1828 28.9072C49.5251 28.6663 49.1869 27.938 49.4272 27.2803L51.0201 22.9301C51.2617 22.2718 51.9925 21.9361 52.6477 22.1752C53.3054 22.4161 53.6436 23.1444 53.4033 23.8021L51.8104 28.1523C51.5709 28.8063 50.8448 29.1498 50.1828 28.9072Z" fill="#16418F"/>
<path d="M53.7375 32.3459C53.4427 31.7105 53.7189 30.9561 54.3543 30.6613L58.5695 28.703C59.2061 28.4063 59.958 28.6838 60.254 29.3186C60.5488 29.954 60.2726 30.7084 59.6372 31.0032L55.422 32.9615C54.7986 33.253 54.0376 32.9901 53.7375 32.3459Z" fill="#16418F"/>
<path d="M59.2297 40.4769L54.861 38.8958C54.202 38.6574 53.8614 37.9303 54.0992 37.2713C54.3383 36.6123 55.0654 36.2742 55.7231 36.5102L60.0918 38.0913C60.7508 38.3297 61.0914 39.0568 60.8536 39.7158C60.6166 40.3695 59.8943 40.7168 59.2297 40.4769Z" fill="#16418F"/>
<path d="M41.3608 27.4771L49.648 45.1853L31.5811 47.5725L31.4806 47.3579C31.4758 47.3479 31.4669 47.3424 31.462 47.3324L27.907 39.7359C30.5164 37.3583 38.6225 29.9721 41.3608 27.4771ZM28.8591 48.4229L24.7754 50.3202C22.8382 51.2213 20.3957 50.3188 19.5007 48.4098C18.5832 46.4488 19.4183 44.0962 21.4187 43.1647L25.5093 41.2647L25.7471 41.7731L28.8591 48.4229ZM0.0708008 54.4383C0.112112 53.9185 0.17406 53.3885 0.256669 52.8487C1.67069 43.2363 10.1217 35.988 19.9124 35.988H27.833L25.3957 38.2088L20.2305 40.6079C16.817 42.1947 15.3649 46.226 16.9481 49.6056C18.0592 51.9786 20.4742 53.5117 23.1012 53.5117C23.1411 53.5117 23.179 53.4996 23.2186 53.499L23.6581 54.4383L0.0708008 54.4383ZM32.5546 59.7061L31.1309 60.3676C30.4149 60.6988 29.5544 60.3897 29.2185 59.6716L26.027 52.8477L30.059 50.9742C30.1598 51.1895 33.3951 58.1025 33.2554 57.804C33.5941 58.5277 33.2705 59.3733 32.5546 59.7061ZM48.7531 52.8412C48.8315 53.3995 48.8907 53.9295 48.9279 54.4383H34.7933L32.8344 50.251L47.4925 48.3141C48.088 49.7656 48.5176 51.284 48.7531 52.8412ZM49.7898 38.837L46.3353 31.4558C48.1273 31.2716 49.9185 32.1991 50.7219 33.9124C51.4676 35.5066 51.2169 37.4693 49.7898 38.837Z" fill="#16418F"/>
</svg>
