<svg width="22" height="22" viewBox="0 0 22 22" fill="none" xmlns="http://www.w3.org/2000/svg">
<path d="M8.65142 5.14258L10.9265 14.6816C10.9513 14.6827 10.975 14.6908 10.9997 14.6908C11.0245 14.6908 11.0482 14.6839 11.0729 14.6816L13.348 5.14258H8.65039H8.65142Z" fill="#16418F"/>
<path d="M9.63785 0.000976562L8.72412 3.91776H13.2763L12.3625 0.000976562H9.63785Z" fill="#16418F"/>
<path d="M14.4128 3.91793H18.966C18.934 3.77792 18.8948 3.63791 18.8371 3.50481L17.8594 1.23597C17.5356 0.485426 16.8425 0 16.0948 0H13.499L14.4128 3.91678L14.4128 3.91793Z" fill="#16418F"/>
<path d="M7.58742 3.91776L8.50115 0.000976562H5.90535C5.15765 0.000976562 4.46461 0.485257 4.14077 1.23694L3.16309 3.50578C3.10534 3.64005 3.06615 3.77891 3.03418 3.91891H7.5874L7.58742 3.91776Z" fill="#16418F"/>
<path d="M7.51288 5.14254H3.07715C3.15656 5.40305 3.27619 5.65094 3.44326 5.86667L9.57951 13.8048L7.5138 5.1416L7.51288 5.14254Z" fill="#16418F"/>
<path d="M14.4866 5.14258L12.4209 13.8058L18.5572 5.86765C18.7242 5.65075 18.8438 5.40402 18.9233 5.14352H14.4875L14.4866 5.14258Z" fill="#16418F"/>
<path d="M7.37402 21.544L6.11685 19.4703C6.07354 19.398 6.01578 19.3383 5.94875 19.2947L1.91723 16.6896C1.6594 16.5266 1.47067 16.2374 1.40673 15.9161L0.015497 8.87108C-0.046383 8.55664 0.0815009 8.27433 0.319722 8.19742C0.588886 8.11135 0.909639 8.31562 1.03441 8.65188L2.76084 13.2929C2.52879 14.1662 2.89078 15.1818 3.64054 15.6581L5.68872 16.9606C5.9352 17.1178 6.25078 17.0226 6.39208 16.7472C6.53338 16.4717 6.44778 16.1206 6.20026 15.9645L4.15208 14.6619C3.79009 14.4313 3.61993 13.9114 3.78185 13.5258C3.78185 13.5247 3.78288 13.5235 3.78288 13.5235C3.86848 13.3204 4.00874 13.2343 4.11187 13.1976C4.16962 13.1769 4.22944 13.1666 4.29029 13.1666C4.40683 13.1666 4.52646 13.2033 4.64093 13.2756L7.88964 15.3425C7.99277 15.409 8.08765 15.5399 8.19801 15.7177L10.3679 19.2961C10.5071 19.5256 10.5577 19.801 10.5102 20.073C10.4628 20.345 10.3236 20.5791 10.1173 20.734L8.66623 21.8231C8.24236 22.1421 7.66173 22.017 7.37504 21.5431L7.37402 21.544Z" fill="#16418F"/>
<path d="M14.6257 21.544L15.8829 19.4703C15.9262 19.398 15.984 19.3383 16.051 19.2947L20.0825 16.6896C20.3404 16.5266 20.5291 16.2374 20.593 15.9161L21.9843 8.87108C22.0461 8.55664 21.9183 8.27433 21.68 8.19742C21.4109 8.11135 21.0901 8.31562 20.9653 8.65188L19.2389 13.2929C19.471 14.1662 19.109 15.1818 18.3592 15.6581L16.311 16.9606C16.0646 17.1178 15.749 17.0226 15.6077 16.7472C15.4664 16.4717 15.552 16.1206 15.7995 15.9645L17.8477 14.6619C18.2097 14.4313 18.3798 13.9114 18.2179 13.5258C18.2179 13.5247 18.2169 13.5235 18.2169 13.5235C18.1313 13.3204 17.991 13.2343 17.8879 13.1976C17.8301 13.1769 17.7703 13.1666 17.7095 13.1666C17.5929 13.1666 17.4733 13.2033 17.3588 13.2756L14.1101 15.3425C14.007 15.409 13.9121 15.5399 13.8017 15.7177L11.6319 19.2961C11.4926 19.5256 11.4421 19.801 11.4895 20.073C11.537 20.345 11.6762 20.5791 11.8825 20.734L13.3335 21.8231C13.7574 22.1421 14.338 22.017 14.6247 21.5431L14.6257 21.544Z" fill="#16418F"/>
</svg>
