<svg width="22" height="20" viewBox="0 0 22 20" fill="none" xmlns="http://www.w3.org/2000/svg">
<path d="M4.28575 0.719917V1.97265H2.95725V0.719917C2.95725 0.541674 3.02723 0.370732 3.1518 0.244695C3.27637 0.118658 3.44533 0.0478516 3.6215 0.0478516C3.79767 0.0478516 3.96662 0.118658 4.09119 0.244695C4.21577 0.370732 4.28575 0.541674 4.28575 0.719917ZM9.46957 0.053228C9.2934 0.053228 9.12444 0.124035 8.99987 0.250072C8.8753 0.376108 8.80531 0.547051 8.80531 0.725294V1.97802H10.1338V0.719917C10.1324 0.542608 10.0618 0.373043 9.93739 0.248167C9.81297 0.123291 9.64482 0.0532223 9.46957 0.053228ZM15.315 0.053228C15.1388 0.053228 14.9699 0.124035 14.8453 0.250072C14.7207 0.376108 14.6507 0.547051 14.6507 0.725294V1.97802H15.9792V0.719917C15.9789 0.632013 15.9614 0.545039 15.9279 0.463961C15.8943 0.382883 15.8453 0.30929 15.7836 0.247382C15.7219 0.185474 15.6488 0.136464 15.5684 0.103151C15.488 0.0698382 15.4019 0.0528742 15.315 0.053228ZM22 14.7231C22 15.7576 21.6967 16.7688 21.1285 17.6288C20.5603 18.4888 19.7527 19.159 18.8079 19.5545C17.8632 19.95 16.8237 20.0531 15.821 19.8507C14.8183 19.6483 13.8975 19.1495 13.1751 18.4174C12.4526 17.6854 11.9611 16.753 11.7626 15.7382C11.5641 14.7234 11.6676 13.6718 12.0599 12.7166C12.4523 11.7613 13.1159 10.9452 13.9668 10.3717C14.8177 9.79811 15.8176 9.49281 16.8401 9.49441C18.2089 9.49797 19.5205 10.0502 20.4876 11.0303C21.4548 12.0103 21.9986 13.3382 22 14.7231ZM18.8435 12.7956C18.7743 12.7419 18.6953 12.7025 18.6111 12.6798C18.5268 12.657 18.439 12.6514 18.3525 12.6631C18.2661 12.6749 18.1828 12.7038 18.1075 12.7482C18.0322 12.7926 17.9662 12.8517 17.9135 12.9219L16.7312 14.4892L16.2928 13.8817C16.2466 13.7989 16.1836 13.727 16.1079 13.6707C16.0322 13.6144 15.9456 13.575 15.8538 13.5551C15.7619 13.5351 15.667 13.5351 15.5751 13.555C15.4833 13.575 15.3967 13.6144 15.321 13.6706C15.2453 13.7269 15.1823 13.7988 15.1361 13.8815C15.0899 13.9643 15.0615 14.056 15.0529 14.1506C15.0443 14.2452 15.0557 14.3406 15.0862 14.4305C15.1167 14.5204 15.1657 14.6027 15.23 14.672L16.1918 16.0161C16.2535 16.0998 16.3337 16.1676 16.426 16.2143C16.5183 16.261 16.62 16.2852 16.7232 16.285C16.8263 16.2848 16.9279 16.2604 17.0201 16.2137C17.1123 16.1671 17.1926 16.0995 17.2546 16.0161L18.9657 13.7392C19.019 13.6691 19.0582 13.5892 19.0809 13.5038C19.1036 13.4184 19.1094 13.3294 19.0981 13.2417C19.0867 13.1541 19.0584 13.0696 19.0147 12.993C18.971 12.9164 18.9128 12.8494 18.8435 12.7956ZM19.6751 4.49693V8.81428C18.4842 8.22867 17.1448 8.02524 15.8365 8.23125C14.5281 8.43726 13.3132 9.04286 12.3545 9.96694C11.3957 10.891 10.739 12.0894 10.4722 13.4017C10.2055 14.7139 10.3414 16.0773 10.8618 17.3092H2.49227C1.8315 17.3085 1.19799 17.0426 0.730746 16.5698C0.263507 16.0971 0.000703327 15.4562 0 14.7876V4.49693C0.000701718 3.82813 0.26342 3.18689 0.730584 2.71373C1.19775 2.24056 1.83125 1.97407 2.49227 1.97265H2.96787V4.68242C2.96787 4.86066 3.03786 5.0316 3.16243 5.15764C3.287 5.28368 3.45596 5.35448 3.63213 5.35448C3.8083 5.35448 3.97725 5.28368 4.10182 5.15764C4.22639 5.0316 4.29638 4.86066 4.29638 4.68242V1.97265H8.81329V4.68242C8.81329 4.86066 8.88327 5.0316 9.00784 5.15764C9.13241 5.28368 9.30137 5.35448 9.47754 5.35448C9.65371 5.35448 9.82266 5.28368 9.94723 5.15764C10.0718 5.0316 10.1418 4.86066 10.1418 4.68242V1.97265H14.6587V4.68242C14.6587 4.77067 14.6759 4.85807 14.7093 4.93961C14.7426 5.02115 14.7916 5.09523 14.8533 5.15764C14.9149 5.22005 14.9882 5.26955 15.0687 5.30333C15.1493 5.3371 15.2357 5.35448 15.3229 5.35448C15.4102 5.35448 15.4966 5.3371 15.5771 5.30333C15.6577 5.26955 15.731 5.22005 15.7926 5.15764C15.8543 5.09523 15.9033 5.02115 15.9366 4.93961C15.97 4.85807 15.9872 4.77067 15.9872 4.68242V1.97265H17.1882C17.8483 1.97549 18.4804 2.24261 18.9464 2.71562C19.4124 3.18863 19.6744 3.82906 19.6751 4.49693ZM6.00749 12.7983C6.00749 12.62 5.9375 12.4491 5.81293 12.3231C5.68836 12.197 5.51941 12.1262 5.34324 12.1262H4.51159C4.33542 12.1262 4.16647 12.197 4.0419 12.3231C3.91733 12.4491 3.84734 12.62 3.84734 12.7983C3.84734 12.9765 3.91733 13.1475 4.0419 13.2735C4.16647 13.3995 4.33542 13.4704 4.51159 13.4704H5.34324C5.51941 13.4704 5.68836 13.3995 5.81293 13.2735C5.9375 13.1475 6.00749 12.9765 6.00749 12.7983ZM6.00749 8.22824C6.00749 8.05 5.9375 7.87905 5.81293 7.75302C5.68836 7.62698 5.51941 7.55617 5.34324 7.55617H4.51159C4.33542 7.55617 4.16647 7.62698 4.0419 7.75302C3.91733 7.87905 3.84734 8.05 3.84734 8.22824C3.84734 8.40648 3.91733 8.57742 4.0419 8.70346C4.16647 8.8295 4.33542 8.9003 4.51159 8.9003H5.34324C5.51941 8.9003 5.68836 8.8295 5.81293 8.70346C5.9375 8.57742 6.00749 8.40648 6.00749 8.22824ZM9.96643 12.7983C9.96643 12.62 9.89644 12.4491 9.77187 12.3231C9.6473 12.197 9.47834 12.1262 9.30217 12.1262H8.47053C8.29436 12.1262 8.12541 12.197 8.00083 12.3231C7.87626 12.4491 7.80628 12.62 7.80628 12.7983C7.80628 12.9765 7.87626 13.1475 8.00083 13.2735C8.12541 13.3995 8.29436 13.4704 8.47053 13.4704H9.30217C9.47834 13.4704 9.6473 13.3995 9.77187 13.2735C9.89644 13.1475 9.96643 12.9765 9.96643 12.7983ZM9.96643 8.22824C9.96643 8.05 9.89644 7.87905 9.77187 7.75302C9.6473 7.62698 9.47834 7.55617 9.30217 7.55617H8.47053C8.29436 7.55617 8.12541 7.62698 8.00083 7.75302C7.87626 7.87905 7.80628 8.05 7.80628 8.22824C7.80628 8.40648 7.87626 8.57742 8.00083 8.70346C8.12541 8.8295 8.29436 8.9003 8.47053 8.9003H9.30217C9.47834 8.9003 9.6473 8.8295 9.77187 8.70346C9.89644 8.57742 9.96643 8.40648 9.96643 8.22824Z" fill="#16418F"/>
</svg>
