<svg width="22" height="14" viewBox="0 0 22 14" fill="none" xmlns="http://www.w3.org/2000/svg">
<path fill-rule="evenodd" clip-rule="evenodd" d="M4.67914 1.6324C5.59366 1.6324 6.41759 2.17771 6.76661 3.01455C7.11564 3.85043 6.92015 4.81275 6.2717 5.45053C5.62325 6.08832 4.6496 6.27605 3.80651 5.92698C2.96352 5.57697 2.41614 4.75901 2.4209 3.85425C2.42281 2.62116 3.43268 1.62301 4.67907 1.62301L4.67914 1.6324ZM10.9998 6.55242C12.4503 6.5562 13.8407 7.12886 14.8658 8.144C15.8919 9.15913 16.4688 10.5337 16.4736 11.9697V12.832C16.4736 12.9518 16.4249 13.0679 16.3391 13.1528C16.2523 13.2377 16.136 13.2858 16.0139 13.2858H14.4471V11.0366C14.4538 10.9734 14.4328 10.9093 14.389 10.8611C14.3451 10.814 14.2831 10.7866 14.2183 10.7866C14.1534 10.7866 14.0914 10.814 14.0485 10.8611C14.0047 10.9093 13.9837 10.9734 13.9904 11.0366V13.2848L8.00927 13.2858V11.0366C8.01595 10.9734 7.99497 10.9093 7.9511 10.8611C7.90819 10.814 7.8462 10.7866 7.78136 10.7866C7.71651 10.7866 7.65453 10.814 7.61066 10.8611C7.56679 10.9093 7.54581 10.9734 7.55249 11.0366V13.2848L5.98569 13.2858C5.73202 13.2858 5.52605 13.082 5.52605 12.832V11.9697C5.53081 10.5338 6.10775 9.15911 7.13384 8.144C8.15897 7.12886 9.54933 6.55619 10.9998 6.55242ZM10.9998 0.714379C12.0698 0.713436 13.0339 1.3512 13.443 2.32861C13.8521 3.30696 13.6242 4.43153 12.867 5.1788C12.1089 5.92601 10.9703 6.14676 9.98341 5.7392C8.99641 5.33069 8.35558 4.37405 8.36132 3.31554C8.36799 1.87774 9.54667 0.715322 11.0001 0.714355L10.9998 0.714379ZM17.3205 1.63235C18.235 1.63235 19.0589 2.17766 19.4079 3.0145C19.757 3.85038 19.5615 4.8127 18.913 5.45048C18.2646 6.08827 17.2909 6.276 16.4478 5.92693C15.6039 5.57692 15.0575 4.75896 15.0622 3.8542C15.0632 2.62111 16.074 1.62296 17.3204 1.62296L17.3205 1.63235ZM4.67938 6.60044C3.43969 6.60421 2.25148 7.09292 1.37416 7.96088C0.497797 8.82789 0.00380837 10.0034 0 11.2299V11.9035C0.000953556 12.1535 0.205981 12.3554 0.458688 12.3554H1.69838V10.4232C1.69171 10.3591 1.71269 10.2959 1.75656 10.2478C1.80042 10.2006 1.86241 10.1732 1.92725 10.1732C1.9921 10.1732 2.05408 10.2006 2.097 10.2478C2.14086 10.2959 2.16184 10.3591 2.15517 10.4232V12.3554H5.06759V11.9695C5.0695 10.1892 5.88771 8.50708 7.29143 7.39487C6.52092 6.87693 5.61102 6.60044 4.67938 6.60044ZM17.3205 6.60044C16.3888 6.60044 15.479 6.87686 14.7086 7.39482C16.1123 8.50715 16.9305 10.1892 16.9324 11.9695V12.3563L19.8448 12.3553V10.4232C19.8382 10.359 19.8591 10.2958 19.903 10.2477C19.9459 10.2005 20.0079 10.1732 20.0727 10.1732C20.1376 10.1732 20.1996 10.2005 20.2434 10.2477C20.2873 10.2958 20.3083 10.359 20.3016 10.4232V12.3553H21.5413C21.794 12.3553 21.999 12.1535 22 11.9034V11.2298C21.9962 10.0033 21.5022 8.82782 20.6258 7.96083C19.7485 7.09285 18.5602 6.60421 17.3205 6.60044Z" fill="#16418F"/>
</svg>
