<svg width="67" height="61" viewBox="0 0 67 61" fill="none" xmlns="http://www.w3.org/2000/svg">
<path d="M64.6074 0.5H2.39287C1.07078 0.5 0 1.58482 0 2.92423V44.9453C0 46.2848 1.07078 47.3696 2.39287 47.3696H27.3744L24.1022 55.6515H20.5368C19.2147 55.6515 18.144 56.7363 18.144 58.0758C18.144 59.4152 19.2147 60.5 20.5368 60.5H46.4602C47.7823 60.5 48.853 59.4152 48.853 58.0758C48.853 56.7363 47.7823 55.6515 46.4602 55.6515H42.8948L39.6226 47.3696H64.6041C65.9262 47.3696 66.997 46.2848 66.997 44.9453L67 2.92423C67 1.58482 65.9295 0.5 64.6074 0.5ZM37.7414 55.6515H29.2588L32.528 47.3696H34.4723L37.7414 55.6515ZM62.2145 42.5211H4.78573V5.34847H62.2145V42.5211ZM25.7625 32.5635C26.1454 32.8029 26.5821 32.9271 27.0188 32.9271C27.3867 32.9271 27.7516 32.8423 28.0896 32.6726L41.0501 26.106C41.8607 25.6939 42.3722 24.8575 42.3722 23.9363C42.3722 23.0181 41.8607 22.1787 41.0501 21.7666L28.0896 15.203C27.3478 14.8303 26.4654 14.8666 25.7625 15.309C25.0566 15.7515 24.6258 16.5302 24.6258 17.3696V30.5C24.6258 31.3394 25.0566 32.1212 25.7625 32.5606L25.7625 32.5635ZM29.4116 21.2941L34.6281 23.9365L29.4116 26.5789V21.2941Z" fill="#16418F"/>
</svg>
