<svg width="40" height="40" viewBox="0 0 40 40" fill="none" xmlns="http://www.w3.org/2000/svg">
<rect width="40" height="40" fill="white"/>
<path d="M22.4 23.2616L15.883 19.5933V12.2256L8.71079 8.21094L1.53857 12.2525V27.6784L15.2278 35.3856L22.4 31.3446V23.2616ZM14.5726 19.5896L9.36601 22.5236V16.6619L14.5726 13.7279V19.5896ZM15.2278 26.5646L10.0261 23.6332L15.2321 20.7003L20.4349 23.6316L15.2278 26.5646ZM8.71079 9.68743L13.8407 12.6583L8.70539 15.5518L3.50367 12.6209L8.71079 9.68743ZM2.84846 26.9399V13.7279L8.05558 16.6619V24.027L14.5726 27.6726V33.5401L2.84846 26.9399ZM15.883 33.5396V27.6774L21.0901 24.7449V30.6066L15.883 33.5396Z" fill="#16418F"/>
<path d="M38.4618 7.11708L31.288 3.07715L17.6003 10.7949V18.8769L31.2896 26.5851L38.4613 22.5547L38.4618 7.11708ZM19.566 11.1633L31.2485 4.57526L36.4962 7.4866L24.7844 14.0842L19.566 11.1633ZM18.9108 12.2714L24.1174 15.2059V21.0718L18.9108 18.1383V12.2714ZM26.0884 22.1772L26.0943 22.1735H26.0927L30.6344 19.6148V24.7391L26.0884 22.1772ZM37.1519 21.8056L31.9448 24.7391V17.4004L25.4278 21.0718V15.2054L37.1519 8.59569V21.8056Z" fill="#16418F"/>
</svg>
