<svg width="93" height="93" viewBox="0 0 93 93" fill="none" xmlns="http://www.w3.org/2000/svg">
<path d="M60.611 54.1374L60.4395 53.7787C60.4077 53.5324 60.1284 53.3077 59.9888 53.1953L58.1734 51.7346L57.7544 51.3975C57.6148 51.2851 57.4752 51.1728 57.4433 50.9265L56.5858 49.133C56.2747 48.662 55.8557 48.3249 55.3609 48.3681L54.3711 48.4545C54.1237 48.4761 53.7685 48.6317 53.5529 48.8996L52.2594 50.5071C52.1517 50.641 52.0439 50.775 51.7964 50.7966L50.3756 51.4188C50.0203 51.5744 49.7729 51.596 49.4936 51.3712L48.4402 50.965C47.9135 50.7619 47.4186 50.8051 47.0952 51.2069L46.5563 51.8767C46.3407 52.1447 45.9855 52.3002 45.5984 52.2094L43.8345 52.1143C43.4475 52.0235 43.0922 52.1791 42.8767 52.447L42.3377 53.1168C42.2299 53.2508 42.1222 53.3847 41.8747 53.4063L40.4538 54.0285C39.8512 54.2057 39.6993 54.9663 39.9027 55.5713L41.4021 59.426C41.5418 59.5384 41.5736 59.7847 41.4658 59.9187L41.3458 60.9255C41.2699 61.3058 41.4414 61.6645 41.8603 62.0016L43.8153 63.5747C44.0946 63.7994 44.4817 63.8902 44.8369 63.7346L46.5371 63.3371C46.8923 63.1815 47.2794 63.2723 47.5587 63.497L48.1173 63.9465C48.3965 64.1712 48.9233 64.3743 49.2785 64.2188L51.302 63.4194C51.6572 63.2638 52.0443 63.3546 52.3236 63.5793L56.6329 65.9433C56.7726 66.0557 56.9122 66.168 57.0519 66.2804L58.125 67.8059C58.2646 67.9183 58.2646 67.9183 58.4042 68.0306C58.8232 68.3677 59.2103 68.4585 59.6733 68.169C60.1363 67.8794 60.663 68.0826 61.0819 68.4197L62.2628 69.8112C62.5421 70.0359 62.8214 70.2606 63.3162 70.2175L67.1674 70.0059C67.4148 69.9843 67.77 69.8287 67.9856 69.5608L68.0934 69.4268C68.5245 68.891 68.429 68.152 67.8704 67.7026L66.1946 66.3542C66.055 66.2419 65.7757 66.0172 65.5283 66.0387L63.7644 65.9436C63.1299 65.8744 62.5395 65.1787 62.5835 64.5521L62.9191 63.2773C63.0269 63.1433 62.995 62.897 62.8554 62.7846L61.7112 58.7743C61.6793 58.528 61.4 58.3033 61.2604 58.1909L59.1976 56.7518L60.2314 56.0388C60.6944 55.7493 60.8781 55.235 60.7066 54.8764L60.611 54.1374Z" fill="white"/>
<path d="M25.1927 67.2557C22.6074 64.7248 20.6262 61.8229 19.1319 58.9164L23.5356 60.8212C23.9021 60.9394 24.1455 60.937 24.5092 60.8118L28.3892 59.5573C29.36 59.3046 29.7123 58.2058 29.217 57.4803L27.6024 54.6966C27.2302 54.0917 27.3448 53.4821 27.826 52.9906L30.1113 50.6561C30.2315 50.5333 30.4721 50.2875 30.4693 50.0441L31.6409 46.1382C31.8786 45.6491 31.6296 45.1647 31.2602 44.8031L31.1371 44.6826C30.7678 44.321 30.6418 43.9571 30.7564 43.3475L31.5474 38.1065C31.6677 37.9836 31.5445 37.8631 31.6648 37.7402L33.3317 34.5598C33.81 33.8249 33.3119 32.8561 32.5789 32.6197C32.2124 32.5016 31.843 32.14 31.7171 31.7761L30.9614 29.5927C30.7095 28.8648 29.7303 28.3875 29.003 28.6379L24.2781 30.5091C24.1578 30.6319 23.9144 30.6343 23.7941 30.7571L21.9899 32.6001C21.7494 32.8459 21.6319 33.2121 21.6348 33.4555L21.1848 36.6242C21.1877 36.8676 20.9499 37.3567 20.466 37.6048L16.8378 39.5871C17.9924 34.2209 20.4899 29.2068 24.5794 25.0293C29.7514 19.7461 36.4121 16.8826 43.3417 16.2072L43.2242 16.5735C43.1124 17.4265 43.728 18.0291 44.3379 18.1449L44.9478 18.2607C45.8011 18.3742 46.2992 19.3431 46.0643 20.0756L45.9497 20.6852C45.7176 21.6611 46.5822 22.7481 47.553 22.4954L49.1308 22.115L49.3742 22.1127L53.6123 20.2462C54.0962 19.9981 54.4542 19.3861 54.4486 18.8994C54.4429 18.4126 54.5603 18.0463 54.8009 17.8006C55.9004 18.1551 57.123 18.6302 58.1023 19.1075L57.2546 19.4808C56.7707 19.7289 56.533 20.218 56.5386 20.7048L56.55 21.6784C56.5556 22.1651 56.3179 22.6543 55.9542 22.7795L54.6255 23.6442C54.1416 23.8923 53.6548 23.897 53.1623 23.4149C52.5468 22.8123 51.576 23.0651 51.218 23.6771L49.6686 26.4913C49.5483 26.6142 49.5483 26.6142 49.428 26.737L47.7441 28.4572C47.3833 28.8258 47.2687 29.4354 47.6408 30.0403L48.262 31.1297C48.5083 31.3707 48.5111 31.6141 48.5168 32.1009L47.9437 35.1491C47.9494 35.6359 48.0753 35.9998 48.4447 36.3613L51.8833 39.0057C52.1295 39.2468 52.496 39.3649 52.7394 39.3626L56.3875 39.084C56.8743 39.0793 57.2351 38.7107 57.3525 38.3444L58.8992 35.2869C59.1369 34.7977 59.6208 34.5497 60.1076 34.545L60.5944 34.5403C60.8378 34.5379 61.2015 34.4127 61.3217 34.2898L59.4609 31.2651L66.1965 24.3846L67.279 23.2788L68.2412 22.2959C55.6866 10.2462 35.1215 10.5663 22.7327 23.2216C10.2237 35.9997 10.4646 56.6875 23.2683 69.2215C36.0719 81.7556 56.5168 81.5584 69.0287 69.0237L67.0589 67.0954C55.6295 78.5243 36.8884 78.705 25.1927 67.2557Z" fill="white"/>
</svg>
