<svg width="25" height="24" viewBox="0 0 25 24" fill="none" xmlns="http://www.w3.org/2000/svg">
<path d="M24.5 9.19026L22.0904 6.83842V7.92052C22.0904 7.98161 22.0641 8.03833 22.0246 8.0776C21.9808 8.12124 21.9107 8.14305 21.8625 8.13869C21.8538 8.13869 21.7749 8.13433 21.6347 8.13433C20.6928 8.13433 17.0256 8.29141 14.5721 10.6127C13.2534 11.8606 12.4823 13.5404 12.2764 15.6175C13.03 14.2125 14.8087 11.8738 18.5808 10.7917C18.5983 10.783 18.6158 10.7786 18.6334 10.7742C19.5797 10.5081 20.6443 10.3161 21.8579 10.2419C21.9192 10.2419 21.9762 10.2594 22.02 10.303C22.0638 10.3423 22.0901 10.399 22.0901 10.4601V11.5422L24.5 9.19026ZM18.4628 8.09506V5.44215C18.4628 4.84002 17.9721 4.35133 17.3676 4.35133H10.5767V19.6491H17.3676C17.9721 19.6491 18.4628 19.1604 18.4628 18.5583V11.2804C13.363 12.8512 12.2286 16.8174 12.2154 16.8655C12.1891 16.9614 12.1015 17.0269 12.0051 17.0269C11.9919 17.0269 11.9832 17.0269 11.9744 17.0225C11.8649 17.0094 11.786 16.9178 11.786 16.8087C11.786 14.0511 12.6228 11.8606 14.2789 10.2943C15.545 9.09003 17.0959 8.44412 18.4628 8.09506ZM9.84071 0.110086C9.65232 -0.0164494 9.4245 -0.0339027 9.21858 0.0577259L1.16594 3.98459C0.758496 4.16348 0.5 4.55619 0.5 4.99252V19.0077C0.5 19.444 0.75849 19.8367 1.15719 20.0113L9.22301 23.9471C9.42892 24.0343 9.65235 24.0125 9.84074 23.8903C10.0291 23.7682 10.1387 23.5675 10.1387 23.3405V0.659874C10.1387 0.432981 10.0291 0.232287 9.84071 0.110086ZM8.82429 13.7499C8.82429 13.8677 8.7279 13.9681 8.60523 13.9681C8.48256 13.9681 8.38617 13.8677 8.38617 13.7499V10.2506C8.38617 10.1328 8.48256 10.0324 8.60523 10.0324C8.7279 10.0324 8.82429 10.1328 8.82429 10.2506V13.7499Z" fill="black"/>
</svg>
