<svg width="22" height="24" viewBox="0 0 22 24" fill="none" xmlns="http://www.w3.org/2000/svg">
<path d="M21.8238 10.0836L20.1899 9.44696L19.2994 7.29025L20.0062 5.67972C20.0503 5.57522 20.0277 5.45349 19.9482 5.37376L17.6075 3.02637C17.528 2.94665 17.4066 2.92403 17.3024 2.96819L15.6997 3.67704L13.5469 2.78397L12.9121 1.14542C12.8713 1.0377 12.7692 0.96875 12.6564 0.96875H9.34787C9.23186 0.96875 9.13088 1.0377 9.09221 1.14542L8.45412 2.78397L6.30353 3.67704L4.69758 2.96819C4.59553 2.92402 4.47199 2.94665 4.39249 3.02637L2.05177 5.37376C1.97228 5.45348 1.94972 5.57522 1.99698 5.67972L2.7006 7.29025L1.81006 9.44696L0.176171 10.0836C0.0719706 10.1246 0 10.2269 0 10.34V13.6602C0 13.7733 0.0719734 13.8757 0.176171 13.9166L1.81006 14.5533L2.7006 16.71L1.99698 18.3205C1.94971 18.425 1.97227 18.5467 2.05177 18.6265L4.39249 20.9739C4.47199 21.0536 4.59337 21.0762 4.69758 21.032L6.30353 20.3232L8.45412 21.2163L9.09221 22.8548C9.13088 22.9625 9.23293 23.0315 9.34787 23.0315H12.6564C12.7692 23.0315 12.8713 22.9625 12.9121 22.8548L13.5469 21.2163L15.6997 20.3232L17.3024 21.032C17.4066 21.0762 17.528 21.0536 17.6075 20.9739L19.9482 18.6265C20.0277 18.5468 20.0503 18.425 20.0062 18.3205L19.2994 16.71L20.1899 14.5533L21.8238 13.9166C21.9313 13.8757 22 13.7733 22 13.6602V10.34C22 10.2269 21.9313 10.1246 21.8238 10.0836ZM11.0001 19.0166C7.14152 19.0166 4.00376 15.8699 4.00376 12.0003C4.00376 8.13081 7.14152 4.98411 11.0001 4.98411C14.8586 4.98411 17.9986 8.13081 17.9986 12.0003C17.9986 15.8699 14.8575 19.0166 11.0001 19.0166Z" fill="#181818"/>
<path d="M11.0001 5.53516C7.44657 5.53516 4.55383 8.4342 4.55383 11.9998C4.55383 15.5654 7.44684 18.4645 11.0001 18.4645C14.5534 18.4645 17.4486 15.5654 17.4486 11.9998C17.4486 8.4342 14.5556 5.53516 11.0001 5.53516ZM11.0001 15.8026C8.90969 15.8026 7.20814 14.0984 7.20814 11.9998C7.20814 9.9013 8.91079 8.19703 11.0001 8.19703C13.0906 8.19703 14.7954 9.9013 14.7954 11.9998C14.7954 14.0984 13.0928 15.8026 11.0001 15.8026Z" fill="#181818"/>
</svg>
