<svg width="22" height="22" viewBox="0 0 22 22" fill="none" xmlns="http://www.w3.org/2000/svg">
<path d="M8.58855 10.9003C8.5622 10.9003 8.54463 10.9003 8.51828 10.9003C8.47435 10.8916 8.41286 10.8916 8.36015 10.9003C5.81257 10.8213 3.8887 8.81835 3.8887 6.34982C3.8887 3.83738 5.93555 1.79053 8.448 1.79053C10.9604 1.79053 13.0073 3.83738 13.0073 6.34982C12.9985 8.81835 11.0659 10.8213 8.61491 10.9003C8.60612 10.9003 8.59734 10.9003 8.58855 10.9003ZM8.448 3.10824C6.66469 3.10824 5.20642 4.56652 5.20642 6.34982C5.20642 8.10678 6.57684 9.52113 8.32501 9.58262C8.37772 9.57384 8.49192 9.57384 8.60612 9.58262C10.3279 9.50356 11.6808 8.08921 11.6896 6.34982C11.6896 4.56652 10.2313 3.10824 8.448 3.10824Z" fill="black"/>
<path d="M15.0717 11.0145C15.0454 11.0145 15.019 11.0145 14.9927 11.0058C14.6325 11.0409 14.2635 10.7861 14.2284 10.426C14.1932 10.0658 14.4129 9.74075 14.773 9.69682C14.8785 9.68804 14.9927 9.68804 15.0893 9.68804C16.3719 9.61776 17.3733 8.56359 17.3733 7.27223C17.3733 5.93694 16.2928 4.85641 14.9575 4.85641C14.5973 4.8652 14.2987 4.56652 14.2987 4.20634C14.2987 3.84616 14.5973 3.54748 14.9575 3.54748C17.0132 3.54748 18.691 5.22537 18.691 7.28101C18.691 9.30151 17.1098 10.9355 15.0981 11.0145C15.0893 11.0145 15.0805 11.0145 15.0717 11.0145Z" fill="black"/>
<path d="M8.59734 20.5021C6.87552 20.5021 5.14492 20.0629 3.83599 19.1844C2.61491 18.3762 1.94727 17.2693 1.94727 16.0658C1.94727 14.8623 2.61491 13.7466 3.83599 12.9296C6.47142 11.1815 10.7408 11.1815 13.3587 12.9296C14.571 13.7378 15.2474 14.8447 15.2474 16.0482C15.2474 17.2517 14.5798 18.3674 13.3587 19.1844C12.041 20.0629 10.3192 20.5021 8.59734 20.5021ZM4.56513 14.0365C3.72179 14.5987 3.26498 15.3191 3.26498 16.0746C3.26498 16.8213 3.73057 17.5416 4.56513 18.0951C6.75254 19.5621 10.4421 19.5621 12.6296 18.0951C13.4729 17.5328 13.9297 16.8125 13.9297 16.057C13.9297 15.3103 13.4641 14.5899 12.6296 14.0365C10.4421 12.5782 6.75254 12.5782 4.56513 14.0365Z" fill="black"/>
<path d="M16.653 18.9208C16.3455 18.9208 16.0732 18.71 16.0117 18.3937C15.9414 18.0336 16.1698 17.691 16.5212 17.6119C17.0746 17.4977 17.5842 17.2781 17.9795 16.9706C18.4802 16.5929 18.7525 16.1185 18.7525 15.6178C18.7525 15.117 18.4802 14.6427 17.9883 14.2737C17.6017 13.975 17.1186 13.7642 16.5476 13.6324C16.1962 13.5533 15.9678 13.2019 16.0468 12.8418C16.1259 12.4904 16.4773 12.262 16.8375 12.341C17.5929 12.508 18.2518 12.8066 18.7877 13.2195C19.6047 13.8345 20.0703 14.7041 20.0703 15.6178C20.0703 16.5314 19.5959 17.4011 18.7789 18.0248C18.2342 18.4465 17.549 18.7539 16.7935 18.9033C16.7408 18.9208 16.6969 18.9208 16.653 18.9208Z" fill="black"/>
</svg>
